<?xml version="1.0" encoding="utf-8"?>
<svg viewBox="111.207 172.168 262.349 117.951" xmlns="http://www.w3.org/2000/svg">
  <defs>
    <linearGradient id="paint0_linear_26568_214324" x1="16.4087" y1="-1.75881" x2="-7.88473" y2="22.5365" gradientUnits="userSpaceOnUse" gradientTransform="matrix(2.086681, 0, 0, 1.978025, 146.294697, 206.790916)">
      <stop stop-color="#17CCFC"/>
      <stop offset="0.5" stop-color="#5D31FF"/>
      <stop offset="1" stop-color="#F35AFF"/>
    </linearGradient>
  </defs>
  <path d="M 219.636 239.899 C 218.81 240.712 217.819 241.355 216.721 241.792 C 215.624 242.227 214.443 242.447 213.253 242.437 C 212.247 242.466 211.248 242.3 210.313 241.948 C 209.378 241.596 208.529 241.066 207.817 240.391 C 206.528 239.116 205.785 237.294 205.785 235.12 C 205.785 230.77 208.771 227.795 213.253 227.795 C 214.455 227.78 215.647 228.015 216.74 228.486 C 217.835 228.956 218.806 229.651 219.586 230.517 L 223.463 227.267 C 220.936 224.362 216.836 222.858 212.942 222.858 C 205.324 222.858 199.919 227.837 199.919 235.162 C 199.919 238.783 201.263 241.835 203.527 243.989 C 205.791 246.144 209.017 247.407 212.74 247.407 C 217.575 247.407 221.433 245.548 223.599 243.21 L 219.636 239.899 Z" style="fill: rgb(255, 255, 255);" transform="matrix(0.9999999999999999, 0, 0, 0.9999999999999999, 0, -2.842170943040401e-14)"/>
  <path d="M 227.105 213.571 L 232.876 213.571 L 232.876 247.024 L 227.105 247.024 L 227.105 213.571 Z" style="fill: rgb(255, 255, 255);" transform="matrix(0.9999999999999999, 0, 0, 0.9999999999999999, 0, -2.842170943040401e-14)"/>
  <path d="M 260.681 237.021 C 260.777 236.291 260.829 235.559 260.84 234.825 C 260.84 227.888 256.049 222.864 248.639 222.864 C 247.005 222.834 245.382 223.121 243.869 223.707 C 242.358 224.294 240.987 225.169 239.844 226.276 C 237.68 228.43 236.38 231.48 236.38 235.118 C 236.38 242.534 241.895 247.413 249.205 247.413 C 254.11 247.413 257.643 245.53 259.759 242.979 L 255.978 239.804 L 255.79 239.654 C 255.041 240.542 254.083 241.256 252.996 241.738 C 251.907 242.221 250.715 242.46 249.513 242.435 C 245.803 242.435 243.126 240.384 242.362 237.021 L 260.681 237.021 Z M 242.458 232.63 C 242.717 231.569 243.245 230.584 243.996 229.763 C 244.622 229.117 245.388 228.606 246.239 228.266 C 247.093 227.928 248.013 227.766 248.937 227.793 C 252.234 227.793 254.3 229.748 255.012 232.63 L 242.458 232.63 Z" style="fill: rgb(255, 255, 255);" transform="matrix(0.9999999999999999, 0, 0, 0.9999999999999999, 0, -2.842170943040401e-14)"/>
  <path d="M 278.683 222.793 L 278.683 228.893 C 278.015 228.844 277.346 228.796 276.937 228.796 C 272.565 228.796 270.086 231.771 270.086 235.676 L 270.086 247.022 L 264.323 247.022 L 264.323 223.131 L 270.086 223.131 L 270.086 226.751 L 270.138 226.751 C 272.098 224.213 274.906 222.801 277.965 222.801 L 278.683 222.793 Z" style="fill: rgb(255, 255, 255);" transform="matrix(0.9999999999999999, 0, 0, 0.9999999999999999, 0, -2.842170943040401e-14)"/>
  <path d="M 292.126 237.017 L 287.958 241.412 L 287.958 247.024 L 282.189 247.024 L 282.189 213.571 L 287.958 213.571 L 287.958 234.091 L 298.252 223.208 L 305.1 223.208 L 296.042 232.822 L 305.259 247.024 L 298.772 247.024 L 292.232 237.017 L 292.126 237.017 Z" style="fill: rgb(255, 255, 255);" transform="matrix(0.9999999999999999, 0, 0, 0.9999999999999999, 0, -2.842170943040401e-14)"/>
  <path d="M 186.183 213.043 L 180.173 218.74 C 179.983 218.92 179.737 219.033 179.472 219.062 C 179.207 219.094 178.938 219.039 178.71 218.906 C 176.346 217.555 173.619 216.881 170.858 216.964 C 168.099 217.049 165.424 217.889 163.156 219.385 C 161.762 220.305 160.552 221.452 159.582 222.773 C 158.006 224.923 157.121 227.459 157.03 230.076 C 156.94 232.693 157.649 235.278 159.072 237.521 C 159.21 237.737 159.269 237.99 159.237 238.241 C 159.204 238.491 159.085 238.724 158.897 238.904 L 152.888 244.601 C 152.767 244.717 152.62 244.806 152.46 244.864 C 152.299 244.919 152.126 244.943 151.955 244.931 C 151.784 244.919 151.617 244.874 151.467 244.795 C 151.316 244.715 151.185 244.609 151.083 244.476 C 147.832 240.239 146.15 235.1 146.304 229.862 C 146.456 224.625 148.435 219.581 151.93 215.52 C 152.996 214.278 154.194 213.142 155.504 212.131 C 159.788 208.82 165.107 206.945 170.633 206.801 C 176.158 206.654 181.577 208.247 186.047 211.328 C 186.187 211.425 186.302 211.55 186.385 211.692 C 186.469 211.835 186.519 211.993 186.533 212.157 C 186.546 212.319 186.521 212.483 186.46 212.636 C 186.4 212.788 186.306 212.929 186.183 213.043 Z" fill="url(#paint0_linear_26568_214324)" style="" transform="matrix(0.9999999999999999, 0, 0, 0.9999999999999999, 0, -2.842170943040401e-14)"/>
  <path d="M 186.178 247.991 L 180.167 242.292 C 179.979 242.114 179.731 242 179.466 241.97 C 179.201 241.94 178.934 241.996 178.706 242.126 C 176.475 243.402 173.921 244.076 171.317 244.076 C 168.715 244.076 166.159 243.402 163.93 242.126 C 163.703 241.996 163.434 241.94 163.169 241.97 C 162.904 242 162.657 242.114 162.468 242.292 L 156.458 247.991 C 156.331 248.106 156.235 248.246 156.17 248.4 C 156.107 248.555 156.082 248.721 156.095 248.885 C 156.107 249.051 156.157 249.211 156.243 249.356 C 156.329 249.502 156.447 249.627 156.589 249.724 C 160.867 252.673 166.023 254.263 171.313 254.263 C 176.605 254.263 181.761 252.673 186.039 249.724 C 186.181 249.627 186.299 249.502 186.387 249.358 C 186.473 249.213 186.523 249.053 186.537 248.887 C 186.55 248.723 186.525 248.557 186.462 248.4 C 186.402 248.246 186.304 248.106 186.178 247.991 Z" style="fill: rgb(255, 255, 255);" transform="matrix(0.9999999999999999, 0, 0, 0.9999999999999999, 0, -2.842170943040401e-14)"/>
  <path d="M 171.33 237.296 C 175.278 237.296 178.481 234.262 178.481 230.517 C 178.481 226.775 175.278 223.738 171.33 223.738 C 167.38 223.738 164.179 226.775 164.179 230.517 C 164.179 234.262 167.38 237.296 171.33 237.296 Z" style="fill: rgb(255, 255, 255);" transform="matrix(0.9999999999999999, 0, 0, 0.9999999999999999, 0, -2.842170943040401e-14)"/>
</svg>