<?xml version="1.0" encoding="UTF-8" standalone="no" ?>
<!DOCTYPE svg PUBLIC "-//W3C//DTD SVG 1.1//EN" "http://www.w3.org/Graphics/SVG/1.1/DTD/svg11.dtd">
<svg xmlns="http://www.w3.org/2000/svg" xmlns:xlink="http://www.w3.org/1999/xlink" version="1.1" width="1080" height="1080" viewBox="0 0 1080 1080" xml:space="preserve">
<desc>Created with Fabric.js 5.2.4</desc>
<defs>
</defs>
<rect x="0" y="0" width="100%" height="100%" fill="transparent"></rect>
<g transform="matrix(1 0 0 1 540 540)" id="57bb3ca5-a633-42b1-901c-1a3e37d9dbb6"  >
<rect style="stroke: none; stroke-width: 1; stroke-dasharray: none; stroke-linecap: butt; stroke-dashoffset: 0; stroke-linejoin: miter; stroke-miterlimit: 4; fill: rgb(255,255,255); fill-rule: nonzero; opacity: 1; visibility: hidden;" vector-effect="non-scaling-stroke"  x="-540" y="-540" rx="0" ry="0" width="1080" height="1080" />
</g>
<g transform="matrix(1 0 0 1 540 540)" id="2aad1f18-117c-4a7a-a043-22b1a66fb043"  >
</g>
<g transform="matrix(0.66 0 0 0.66 540 540)"  >
<g style=""   >
		<g transform="matrix(1 0 0 1 -644.37 64.84)"  >
<path style="stroke: none; stroke-width: 1; stroke-dasharray: none; stroke-linecap: butt; stroke-dashoffset: 0; stroke-linejoin: miter; stroke-miterlimit: 4; fill: rgb(0,233,163); fill-rule: nonzero; opacity: 1;" vector-effect="non-scaling-stroke"  transform=" translate(-171.13, -300.84)" d="M 0.421875 412.975 C 78.5269 491.079 205.16 491.079 283.265 412.975 C 361.369 334.87 361.369 208.237 283.265 130.132 L 247.909 165.487 C 306.488 224.066 306.488 319.041 247.909 377.619 C 189.331 436.198 94.3559 436.198 35.7769 377.619 L 0.421875 412.975 Z" stroke-linecap="round" />
</g>
		<g transform="matrix(1 0 0 1 -659.01 50.2)"  >
<path style="stroke: none; stroke-width: 1; stroke-dasharray: none; stroke-linecap: butt; stroke-dashoffset: 0; stroke-linejoin: miter; stroke-miterlimit: 4; fill: rgb(0,233,163); fill-rule: nonzero; opacity: 1;" vector-effect="non-scaling-stroke"  transform=" translate(-156.49, -286.2)" d="M 71.1328 342.264 C 110.185 381.316 173.501 381.316 212.554 342.264 C 251.606 303.212 251.606 239.895 212.554 200.843 L 177.199 236.198 C 196.725 255.724 196.725 287.382 177.199 306.909 C 157.672 326.435 126.014 326.435 106.488 306.909 L 71.1328 342.264 Z" stroke-linecap="round" />
</g>
		<g transform="matrix(1 0 0 1 -632.24 -64.45)"  >
<path style="stroke: none; stroke-width: 1; stroke-dasharray: none; stroke-linecap: butt; stroke-dashoffset: 0; stroke-linejoin: miter; stroke-miterlimit: 4; fill: rgb(0,233,163); fill-rule: nonzero; opacity: 1;" vector-effect="non-scaling-stroke"  transform=" translate(-183.26, -171.55)" d="M 353.974 59.421 C 275.869 -18.6835 149.236 -18.6835 71.1315 59.421 C -6.97352 137.526 -6.97352 264.159 71.1315 342.264 L 106.486 306.909 C 47.9085 248.33 47.9085 153.355 106.486 94.777 C 165.065 36.198 260.04 36.198 318.618 94.777 L 353.974 59.421 Z" stroke-linecap="round" />
</g>
		<g transform="matrix(1 0 0 1 -617.59 -49.8)"  >
<path style="stroke: none; stroke-width: 1; stroke-dasharray: none; stroke-linecap: butt; stroke-dashoffset: 0; stroke-linejoin: miter; stroke-miterlimit: 4; fill: rgb(0,233,163); fill-rule: nonzero; opacity: 1;" vector-effect="non-scaling-stroke"  transform=" translate(-197.91, -186.2)" d="M 283.264 130.132 C 244.212 91.08 180.894 91.08 141.842 130.132 C 102.789 169.185 102.789 232.501 141.842 271.553 L 177.197 236.198 C 157.671 216.672 157.671 185.014 177.197 165.487 C 196.723 145.961 228.381 145.961 247.908 165.487 L 283.264 130.132 Z" stroke-linecap="round" />
</g>
		<g transform="matrix(1 0 0 1 -632.24 -64.45)"  >
<path style="stroke: none; stroke-width: 1; stroke-dasharray: none; stroke-linecap: butt; stroke-dashoffset: 0; stroke-linejoin: miter; stroke-miterlimit: 4; fill: rgb(255,255,255); fill-opacity: 0.8; fill-rule: nonzero; opacity: 1;" vector-effect="non-scaling-stroke"  transform=" translate(-183.26, -171.55)" d="M 353.974 59.421 C 275.869 -18.6835 149.236 -18.6835 71.1315 59.421 C -6.97352 137.526 -6.97352 264.159 71.1315 342.264 L 106.486 306.909 C 47.9085 248.33 47.9085 153.355 106.486 94.777 C 165.065 36.198 260.04 36.198 318.618 94.777 L 353.974 59.421 Z" stroke-linecap="round" />
</g>
		<g transform="matrix(1 0 0 1 -617.59 -49.8)"  >
<path style="stroke: none; stroke-width: 1; stroke-dasharray: none; stroke-linecap: butt; stroke-dashoffset: 0; stroke-linejoin: miter; stroke-miterlimit: 4; fill: rgb(255,255,255); fill-opacity: 0.8; fill-rule: nonzero; opacity: 1;" vector-effect="non-scaling-stroke"  transform=" translate(-197.91, -186.2)" d="M 283.264 130.132 C 244.212 91.08 180.894 91.08 141.842 130.132 C 102.789 169.185 102.789 232.501 141.842 271.553 L 177.197 236.198 C 157.671 216.672 157.671 185.014 177.197 165.487 C 196.723 145.961 228.381 145.961 247.908 165.487 L 283.264 130.132 Z" stroke-linecap="round" />
</g>
		<g transform="matrix(1 0 0 1 215.43 18.59)"  >
<path style="stroke: none; stroke-width: 1; stroke-dasharray: none; stroke-linecap: butt; stroke-dashoffset: 0; stroke-linejoin: miter; stroke-miterlimit: 4; fill: rgb(255,255,255); fill-rule: nonzero; opacity: 1;" vector-effect="non-scaling-stroke"  transform=" translate(-1030.93, -254.59)" d="M 588.112 264.179 C 588.112 289.108 570.321 301.466 553.276 301.466 C 534.739 301.466 522.381 288.362 522.381 267.588 L 522.381 169.364 L 483.815 169.364 L 483.815 273.554 C 483.815 312.865 506.188 335.131 538.361 335.131 C 562.864 335.131 580.122 322.24 587.58 303.916 L 589.284 303.916 L 589.284 333 L 626.678 333 L 626.678 169.364 L 588.112 169.364 L 588.112 264.179 Z M 660.335 394.364 L 698.9 394.364 L 698.9 307.219 L 700.498 307.219 C 706.571 319.151 719.248 335.876 747.373 335.876 C 785.939 335.876 814.809 305.301 814.809 251.395 C 814.809 196.849 785.086 167.233 747.267 167.233 C 718.396 167.233 706.358 184.598 700.498 196.423 L 698.261 196.423 L 698.261 169.364 L 660.335 169.364 L 660.335 394.364 Z M 698.154 251.182 C 698.154 219.435 711.791 198.874 736.613 198.874 C 762.288 198.874 775.498 220.713 775.498 251.182 C 775.498 281.864 762.075 304.236 736.613 304.236 C 712.004 304.236 698.154 282.929 698.154 251.182 Z M 971.167 212.616 C 965.841 184.918 943.681 167.233 905.329 167.233 C 865.912 167.233 839.065 186.622 839.172 216.878 C 839.065 240.741 853.767 256.509 885.194 263.007 L 913.106 268.866 C 928.127 272.169 935.159 278.241 935.159 287.51 C 935.159 298.696 923.014 307.112 904.69 307.112 C 887.005 307.112 875.5 299.442 872.197 284.74 L 834.591 288.362 C 839.385 318.405 864.633 336.196 904.797 336.196 C 945.706 336.196 974.576 314.996 974.683 283.994 C 974.576 260.663 959.555 246.388 928.66 239.676 L 900.748 233.71 C 884.129 229.982 877.524 224.229 877.63 214.747 C 877.524 203.668 889.775 195.997 905.862 195.997 C 923.653 195.997 933.028 205.692 936.011 216.452 L 971.167 212.616 Z M 1082.19 169.364 L 1049.92 169.364 L 1049.92 130.159 L 1011.35 130.159 L 1011.35 169.364 L 988.125 169.364 L 988.125 199.193 L 1011.35 199.193 L 1011.35 290.173 C 1011.14 320.962 1033.51 336.089 1062.49 335.237 C 1073.46 334.918 1081.02 332.787 1085.18 331.402 L 1078.68 301.253 C 1076.55 301.786 1072.18 302.744 1067.39 302.744 C 1057.69 302.744 1049.92 299.335 1049.92 283.781 L 1049.92 199.193 L 1082.19 199.193 L 1082.19 169.364 Z M 1155.54 336.303 C 1181.21 336.303 1196.55 324.264 1203.58 310.521 L 1204.86 310.521 L 1204.86 333 L 1241.94 333 L 1241.94 223.483 C 1241.94 180.23 1206.67 167.233 1175.46 167.233 C 1141.05 167.233 1114.63 182.574 1106.1 212.403 L 1142.11 217.517 C 1145.95 206.331 1156.81 196.743 1175.67 196.743 C 1193.57 196.743 1203.37 205.905 1203.37 221.991 L 1203.37 222.631 C 1203.37 233.71 1191.76 234.243 1162.89 237.332 C 1131.14 240.741 1100.78 250.223 1100.78 287.084 C 1100.78 319.257 1124.32 336.303 1155.54 336.303 Z M 1165.55 307.964 C 1149.46 307.964 1137.96 300.614 1137.96 286.445 C 1137.96 271.636 1150.85 265.457 1168.11 263.007 C 1178.23 261.622 1198.47 259.065 1203.48 255.017 L 1203.48 274.3 C 1203.48 292.517 1188.77 307.964 1165.55 307.964 Z M 1404.05 212.616 C 1398.72 184.918 1376.56 167.233 1338.21 167.233 C 1298.79 167.233 1271.94 186.622 1272.05 216.878 C 1271.94 240.741 1286.65 256.509 1318.07 263.007 L 1345.99 268.866 C 1361.01 272.169 1368.04 278.241 1368.04 287.51 C 1368.04 298.696 1355.89 307.112 1337.57 307.112 C 1319.88 307.112 1308.38 299.442 1305.08 284.74 L 1267.47 288.362 C 1272.26 318.405 1297.51 336.196 1337.68 336.196 C 1378.58 336.196 1407.46 314.996 1407.56 283.994 C 1407.46 260.663 1392.43 246.388 1361.54 239.676 L 1333.63 233.71 C 1317.01 229.982 1310.4 224.229 1310.51 214.747 C 1310.4 203.668 1322.65 195.997 1338.74 195.997 C 1356.53 195.997 1365.91 205.692 1368.89 216.452 L 1404.05 212.616 Z M 1471.93 237.119 C 1471.93 213.469 1486.63 199.832 1507.3 199.832 C 1527.54 199.832 1539.47 212.723 1539.47 234.776 L 1539.47 333 L 1578.04 333 L 1578.04 228.81 C 1578.04 189.286 1555.66 167.233 1521.68 167.233 C 1496.54 167.233 1480.56 178.632 1472.99 197.169 L 1471.08 197.169 L 1471.08 114.818 L 1433.36 114.818 L 1433.36 333 L 1471.93 333 L 1471.93 237.119 Z" stroke-linecap="round" />
</g>
</g>
</g>
</svg>